<svg xmlns="http://www.w3.org/2000/svg" xmlns:xlink="http://www.w3.org/1999/xlink" width="500" zoomAndPan="magnify" viewBox="0 0 375 374.999991" height="500" preserveAspectRatio="xMidYMid meet" version="1.0"><defs><clipPath id="f44d90df95"><path d="M 28.496094 31 L 346.496094 31 L 346.496094 347.890625 L 28.496094 347.890625 Z M 28.496094 31 " clip-rule="nonzero"/></clipPath></defs><g clip-path="url(#f44d90df95)"><path fill="#000000" d="M 346.496094 74.742188 C 346.496094 63.203125 341.980469 52.332031 333.777344 44.300781 C 316.707031 27.242188 288.921875 27.242188 271.851562 44.300781 L 253.777344 62.367188 L 59.460938 62.367188 C 51.09375 62.367188 43.394531 65.542969 37.535156 71.398438 C 31.675781 77.25 28.496094 85.113281 28.496094 93.308594 L 28.496094 316.597656 C 28.496094 324.960938 31.675781 332.65625 37.535156 338.507812 C 43.394531 344.363281 51.257812 347.542969 59.460938 347.542969 L 282.898438 347.542969 C 291.265625 347.542969 298.964844 344.363281 304.824219 338.507812 C 310.679688 332.65625 313.859375 324.792969 313.859375 316.597656 L 313.859375 124.921875 L 320.222656 118.566406 L 333.609375 105.183594 C 341.980469 97.15625 346.496094 86.285156 346.496094 74.742188 Z M 179.964844 241.5 L 162.390625 223.9375 L 263.316406 123.082031 C 265.660156 120.738281 265.660156 116.726562 263.316406 114.382812 C 260.972656 112.042969 256.957031 112.042969 254.613281 114.382812 L 153.6875 215.238281 L 136.117188 197.511719 L 263.484375 70.226562 L 307.332031 114.046875 Z M 131.765625 210.722656 L 166.910156 245.847656 L 125.90625 251.703125 Z M 301.644531 316.765625 C 301.644531 321.785156 299.632812 326.46875 296.121094 329.980469 C 292.605469 333.492188 287.917969 335.5 282.898438 335.5 L 59.460938 335.5 C 54.441406 335.5 49.753906 333.492188 46.238281 329.980469 C 42.722656 326.46875 40.714844 321.785156 40.714844 316.765625 L 40.714844 93.308594 C 40.714844 88.289062 42.722656 83.609375 46.238281 80.09375 C 49.753906 76.582031 54.441406 74.574219 59.460938 74.574219 L 241.390625 74.574219 L 122.894531 193.160156 C 122.390625 193.664062 121.890625 194.332031 121.722656 195 C 121.554688 195.167969 121.554688 195.503906 121.554688 195.671875 C 121.386719 196.003906 121.386719 196.339844 121.21875 196.507812 L 112.515625 257.890625 C 112.183594 259.898438 112.851562 261.738281 114.191406 263.074219 C 115.363281 264.246094 116.867188 264.914062 118.542969 264.914062 C 118.875 264.914062 119.042969 264.914062 119.378906 264.914062 L 180.804688 256.21875 C 181.136719 256.21875 181.472656 256.050781 181.640625 255.882812 C 181.808594 255.882812 182.140625 255.714844 182.308594 255.714844 C 182.980469 255.382812 183.648438 255.046875 184.148438 254.546875 L 301.476562 137.296875 L 301.476562 316.765625 Z M 316.035156 105.519531 L 272.1875 61.53125 L 280.722656 53 C 286.578125 47.144531 294.445312 43.800781 302.8125 43.800781 C 311.183594 43.800781 319.050781 46.976562 324.90625 53 C 330.765625 58.851562 333.945312 66.546875 333.945312 74.742188 C 333.945312 82.9375 330.765625 90.632812 324.90625 96.488281 Z M 316.035156 105.519531 " fill-opacity="1" fill-rule="nonzero"/></g></svg>