<svg xmlns="http://www.w3.org/2000/svg" xmlns:xlink="http://www.w3.org/1999/xlink" width="500" zoomAndPan="magnify" viewBox="0 0 375 374.999991" height="500" preserveAspectRatio="xMidYMid meet" version="1.0"><defs><clipPath id="5472296871"><path d="M 40.660156 40.660156 L 334.660156 40.660156 L 334.660156 334.660156 L 40.660156 334.660156 Z M 40.660156 40.660156 " clip-rule="nonzero"/></clipPath></defs><path fill="#b84141" d="M 199.910156 261.160156 C 199.910156 261.964844 199.832031 262.761719 199.675781 263.550781 C 199.519531 264.339844 199.285156 265.105469 198.976562 265.847656 C 198.671875 266.59375 198.292969 267.296875 197.847656 267.964844 C 197.398438 268.636719 196.890625 269.253906 196.324219 269.824219 C 195.753906 270.390625 195.136719 270.898438 194.464844 271.347656 C 193.796875 271.792969 193.09375 272.171875 192.347656 272.476562 C 191.605469 272.785156 190.839844 273.019531 190.050781 273.175781 C 189.261719 273.332031 188.464844 273.410156 187.660156 273.410156 C 186.855469 273.410156 186.058594 273.332031 185.269531 273.175781 C 184.480469 273.019531 183.714844 272.785156 182.972656 272.476562 C 182.230469 272.171875 181.523438 271.792969 180.855469 271.347656 C 180.1875 270.898438 179.566406 270.390625 179 269.824219 C 178.429688 269.253906 177.921875 268.636719 177.476562 267.964844 C 177.027344 267.296875 176.652344 266.59375 176.34375 265.847656 C 176.035156 265.105469 175.804688 264.339844 175.644531 263.550781 C 175.488281 262.761719 175.410156 261.964844 175.410156 261.160156 C 175.410156 260.355469 175.488281 259.558594 175.644531 258.769531 C 175.804688 257.980469 176.035156 257.214844 176.34375 256.472656 C 176.652344 255.730469 177.027344 255.023438 177.476562 254.355469 C 177.921875 253.6875 178.429688 253.066406 179 252.5 C 179.566406 251.929688 180.1875 251.421875 180.855469 250.976562 C 181.523438 250.527344 182.230469 250.152344 182.972656 249.84375 C 183.714844 249.535156 184.480469 249.304688 185.269531 249.144531 C 186.058594 248.988281 186.855469 248.910156 187.660156 248.910156 C 188.464844 248.910156 189.261719 248.988281 190.050781 249.144531 C 190.839844 249.304688 191.605469 249.535156 192.347656 249.84375 C 193.09375 250.152344 193.796875 250.527344 194.464844 250.976562 C 195.136719 251.421875 195.753906 251.929688 196.324219 252.5 C 196.890625 253.066406 197.398438 253.6875 197.847656 254.355469 C 198.292969 255.023438 198.671875 255.730469 198.976562 256.472656 C 199.285156 257.214844 199.519531 257.980469 199.675781 258.769531 C 199.832031 259.558594 199.910156 260.355469 199.910156 261.160156 Z M 199.910156 261.160156 " fill-opacity="1" fill-rule="nonzero"/><path fill="#b84141" d="M 187.660156 224.410156 C 182.589844 224.410156 178.472656 220.296875 178.472656 215.222656 L 178.472656 111.097656 C 178.472656 106.027344 182.589844 101.910156 187.660156 101.910156 C 192.734375 101.910156 196.847656 106.027344 196.847656 111.097656 L 196.847656 215.222656 C 196.847656 220.296875 192.734375 224.410156 187.660156 224.410156 Z M 187.660156 224.410156 " fill-opacity="1" fill-rule="nonzero"/><g clip-path="url(#5472296871)"><path fill="#b84141" d="M 187.660156 334.660156 C 106.601562 334.660156 40.660156 268.71875 40.660156 187.660156 C 40.660156 106.601562 106.601562 40.660156 187.660156 40.660156 C 268.71875 40.660156 334.660156 106.601562 334.660156 187.660156 C 334.660156 268.71875 268.71875 334.660156 187.660156 334.660156 Z M 187.660156 59.035156 C 116.734375 59.035156 59.035156 116.734375 59.035156 187.660156 C 59.035156 258.589844 116.734375 316.285156 187.660156 316.285156 C 258.589844 316.285156 316.285156 258.589844 316.285156 187.660156 C 316.285156 116.734375 258.589844 59.035156 187.660156 59.035156 Z M 187.660156 59.035156 " fill-opacity="1" fill-rule="nonzero"/></g></svg>