<svg xmlns="http://www.w3.org/2000/svg" xmlns:xlink="http://www.w3.org/1999/xlink" width="500" zoomAndPan="magnify" viewBox="0 0 375 374.999991" height="500" preserveAspectRatio="xMidYMid meet" version="1.0"><defs><clipPath id="bcb483afef"><path d="M 40.230469 40.230469 L 334.980469 40.230469 L 334.980469 334.980469 L 40.230469 334.980469 Z M 40.230469 40.230469 " clip-rule="nonzero"/></clipPath></defs><g clip-path="url(#bcb483afef)"><path fill="#000000" d="M 187.605469 40.230469 C 106.339844 40.230469 40.230469 106.339844 40.230469 187.605469 C 40.230469 268.867188 106.339844 334.980469 187.605469 334.980469 C 268.867188 334.980469 334.980469 268.867188 334.980469 187.605469 C 334.980469 106.339844 268.867188 40.230469 187.605469 40.230469 Z M 280.851562 274.757812 C 261.628906 241.917969 226.382812 221.34375 187.597656 221.34375 C 148.824219 221.34375 113.582031 241.917969 94.359375 274.757812 C 72.996094 251.917969 59.878906 221.273438 59.878906 187.605469 C 59.878906 117.175781 117.175781 59.878906 187.605469 59.878906 C 258.03125 59.878906 315.328125 117.175781 315.328125 187.605469 C 315.328125 221.273438 302.210938 251.917969 280.851562 274.757812 Z M 280.851562 274.757812 " fill-opacity="1" fill-rule="nonzero"/></g><path fill="#000000" d="M 187.605469 83.796875 C 154.480469 83.796875 127.527344 110.746094 127.527344 143.871094 C 127.527344 177 154.480469 203.953125 187.605469 203.953125 C 220.730469 203.953125 247.683594 177 247.683594 143.871094 C 247.683594 110.746094 220.730469 83.796875 187.605469 83.796875 Z M 187.605469 83.796875 " fill-opacity="1" fill-rule="nonzero"/></svg>