<svg xmlns="http://www.w3.org/2000/svg" xmlns:xlink="http://www.w3.org/1999/xlink" width="500" zoomAndPan="magnify" viewBox="0 0 375 374.999991" height="500" preserveAspectRatio="xMidYMid meet" version="1.0"><defs><clipPath id="06ec3a73f6"><path d="M 46.191406 46.191406 L 328.941406 46.191406 L 328.941406 328.941406 L 46.191406 328.941406 Z M 46.191406 46.191406 " clip-rule="nonzero"/></clipPath></defs><g clip-path="url(#06ec3a73f6)"><path fill="#688f4e" d="M 187.566406 46.191406 C 109.613281 46.191406 46.191406 109.613281 46.191406 187.566406 C 46.191406 265.523438 109.613281 328.941406 187.566406 328.941406 C 265.523438 328.941406 328.941406 265.523438 328.941406 187.566406 C 328.941406 109.613281 265.523438 46.191406 187.566406 46.191406 Z M 187.566406 308.753906 C 120.753906 308.753906 66.382812 254.382812 66.382812 187.566406 C 66.382812 120.753906 120.753906 66.382812 187.566406 66.382812 C 254.382812 66.382812 308.753906 120.753906 308.753906 187.566406 C 308.753906 254.382812 254.382812 308.753906 187.566406 308.753906 Z M 251.921875 137.097656 C 255.992188 140.914062 256.21875 147.304688 252.402344 151.375 L 171.960938 237.558594 C 170.039062 239.621094 167.351562 240.78125 164.582031 240.78125 C 164.523438 240.78125 164.4375 240.78125 164.355469 240.78125 C 161.5 240.726562 158.785156 239.425781 156.890625 237.246094 L 122.449219 197.011719 C 118.832031 192.769531 119.3125 186.410156 123.554688 182.761719 C 127.792969 179.140625 134.15625 179.621094 137.804688 183.863281 L 164.917969 215.503906 L 237.644531 137.578125 C 241.460938 133.507812 247.820312 133.28125 251.921875 137.097656 Z M 251.921875 137.097656 " fill-opacity="1" fill-rule="nonzero"/></g></svg>