<svg xmlns="http://www.w3.org/2000/svg" xmlns:xlink="http://www.w3.org/1999/xlink" width="500" zoomAndPan="magnify" viewBox="0 0 375 374.999991" height="500" preserveAspectRatio="xMidYMid meet" version="1.0"><defs><clipPath id="c237efaa88"><path d="M 35.003906 36 L 340 36 L 340 340 L 35.003906 340 Z M 35.003906 36 " clip-rule="nonzero"/></clipPath></defs><g clip-path="url(#c237efaa88)"><path fill="#000000" d="M 198.421875 187.886719 L 337.171875 49.648438 C 340.253906 46.566406 340.253906 41.941406 337.171875 38.859375 C 334.085938 35.773438 329.460938 35.773438 326.378906 38.859375 L 187.628906 177.09375 L 49.394531 38.34375 C 46.308594 35.261719 41.683594 35.261719 38.601562 38.34375 C 35.519531 41.425781 35.519531 46.050781 38.601562 49.136719 L 176.835938 187.886719 L 38.085938 326.121094 C 35.003906 329.207031 35.003906 333.832031 38.085938 336.914062 C 41.171875 339.996094 46.308594 339.996094 48.878906 336.914062 L 187.628906 198.675781 L 325.863281 336.914062 C 327.40625 338.457031 329.460938 338.96875 331.519531 338.96875 C 333.574219 338.96875 335.628906 337.941406 337.171875 336.914062 C 340.253906 333.832031 340.253906 329.207031 337.171875 326.121094 Z M 198.421875 187.886719 " fill-opacity="1" fill-rule="nonzero"/></g></svg>