<svg xmlns="http://www.w3.org/2000/svg" xmlns:xlink="http://www.w3.org/1999/xlink" width="500" zoomAndPan="magnify" viewBox="0 0 375 374.999991" height="500" preserveAspectRatio="xMidYMid meet" version="1.0"><defs><clipPath id="7b0694b0b2"><path d="M 110 75.007812 L 265 75.007812 L 265 300 L 110 300 Z M 110 75.007812 " clip-rule="nonzero"/></clipPath></defs><g clip-path="url(#7b0694b0b2)"><path fill="#b84141" d="M 245.597656 151.84375 C 250.363281 147.078125 253.34375 140.496094 253.34375 133.214844 C 253.34375 108.972656 230.144531 93.25 229.179688 92.589844 C 227.859375 91.738281 226.195312 91.738281 224.878906 92.589844 C 224.414062 92.902344 218.953125 96.617188 213.339844 103.007812 C 200.789062 87.128906 190.796875 77.101562 190.257812 76.519531 C 188.746094 75.007812 186.304688 75.007812 184.796875 76.519531 C 184.019531 77.292969 165.933594 95.457031 147.539062 122.0625 C 140.761719 131.898438 134.953125 141.425781 129.996094 150.679688 C 129.144531 150.023438 128.601562 149.632812 128.484375 149.558594 C 127.167969 148.707031 125.503906 148.707031 124.1875 149.558594 C 123.644531 149.90625 110.824219 158.621094 110.824219 172.132812 C 110.824219 176.664062 112.800781 180.691406 115.898438 183.519531 C 112.023438 195.875 110.011719 207.570312 110.011719 218.605469 C 110.011719 264.960938 143.316406 299.933594 187.46875 299.933594 C 231.617188 299.933594 264.925781 264.960938 264.925781 218.605469 C 264.925781 198.46875 258.378906 176.046875 245.558594 151.765625 Z M 227.007812 100.644531 C 232.316406 104.867188 245.558594 117.105469 245.558594 133.214844 C 245.558594 143.4375 237.234375 151.804688 227.007812 151.804688 C 216.785156 151.804688 208.417969 143.476562 208.417969 133.214844 C 208.417969 117.105469 221.703125 104.867188 227.007812 100.644531 Z M 126.316406 157.765625 C 129.21875 160.363281 134.0625 165.628906 134.0625 172.171875 C 134.0625 176.433594 130.574219 179.917969 126.316406 179.917969 C 122.054688 179.917969 118.570312 176.433594 118.570312 172.171875 C 118.570312 165.589844 123.410156 160.324219 126.316406 157.765625 Z M 187.46875 292.265625 C 147.734375 292.265625 117.757812 260.625 117.757812 218.683594 C 117.757812 208.34375 119.691406 197.773438 122.90625 187.277344 C 123.992188 187.507812 125.152344 187.664062 126.316406 187.664062 C 134.875 187.664062 141.808594 180.730469 141.808594 172.171875 C 141.808594 165.707031 138.863281 160.363281 135.765625 156.488281 C 153.503906 122.410156 179.140625 93.753906 187.507812 84.84375 C 191.457031 89.066406 199.355469 97.78125 208.417969 109.398438 C 204.160156 115.828125 200.710938 123.882812 200.710938 133.214844 C 200.710938 147.738281 212.523438 159.546875 227.046875 159.546875 C 231.425781 159.546875 235.566406 158.464844 239.207031 156.527344 C 249.546875 176.355469 257.21875 198.003906 257.21875 218.683594 C 257.21875 260.625 227.242188 292.265625 187.507812 292.265625 Z M 187.46875 292.265625 " fill-opacity="1" fill-rule="nonzero"/></g><path fill="#b84141" d="M 164.269531 199.320312 L 152.652344 199.320312 C 150.519531 199.320312 148.777344 201.0625 148.777344 203.191406 L 148.777344 249.664062 C 148.777344 251.792969 150.519531 253.539062 152.652344 253.539062 C 154.78125 253.539062 156.523438 251.792969 156.523438 249.664062 L 156.523438 230.300781 L 164.269531 230.300781 C 172.828125 230.300781 179.761719 223.371094 179.761719 214.8125 C 179.761719 206.253906 172.828125 199.320312 164.269531 199.320312 Z M 164.269531 222.554688 L 156.523438 222.554688 L 156.523438 207.066406 L 164.269531 207.066406 C 168.53125 207.066406 172.015625 210.550781 172.015625 214.8125 C 172.015625 219.070312 168.53125 222.554688 164.269531 222.554688 Z M 164.269531 222.554688 " fill-opacity="1" fill-rule="nonzero"/><path fill="#b84141" d="M 222.363281 183.832031 C 220.230469 183.832031 218.488281 185.574219 218.488281 187.703125 L 218.488281 207.066406 L 195.25 207.066406 L 195.25 187.703125 C 195.25 185.574219 193.507812 183.832031 191.378906 183.832031 C 189.25 183.832031 187.507812 185.574219 187.507812 187.703125 L 187.507812 234.175781 C 187.507812 236.304688 189.25 238.046875 191.378906 238.046875 C 193.507812 238.046875 195.25 236.304688 195.25 234.175781 L 195.25 214.8125 L 218.488281 214.8125 L 218.488281 234.175781 C 218.488281 236.304688 220.230469 238.046875 222.363281 238.046875 C 224.492188 238.046875 226.234375 236.304688 226.234375 234.175781 L 226.234375 187.703125 C 226.234375 185.574219 224.492188 183.832031 222.363281 183.832031 Z M 222.363281 183.832031 " fill-opacity="1" fill-rule="nonzero"/></svg>