<svg xmlns="http://www.w3.org/2000/svg" xmlns:xlink="http://www.w3.org/1999/xlink" width="500" zoomAndPan="magnify" viewBox="0 0 375 374.999991" height="500" preserveAspectRatio="xMidYMid meet" version="1.0"><defs><clipPath id="778793252f"><path d="M 103.617188 107.375 L 232 107.375 L 232 300.085938 L 103.617188 300.085938 Z M 103.617188 107.375 " clip-rule="nonzero"/></clipPath><clipPath id="0ce4346fa1"><path d="M 185.441406 75.085938 L 271.355469 75.085938 L 271.355469 212.609375 L 185.441406 212.609375 Z M 185.441406 75.085938 " clip-rule="nonzero"/></clipPath></defs><path fill="#b84141" d="M 179.730469 275.570312 C 174.757812 275.570312 170.699219 271.507812 170.699219 266.53125 C 170.699219 261.550781 174.757812 257.488281 179.730469 257.488281 C 184.703125 257.488281 188.757812 261.550781 188.757812 266.53125 C 188.757812 271.507812 184.703125 275.570312 179.730469 275.570312 Z M 179.730469 262.082031 C 177.277344 262.082031 175.285156 264.078125 175.285156 266.53125 C 175.285156 268.984375 177.277344 270.980469 179.730469 270.980469 C 182.179688 270.980469 184.171875 268.984375 184.171875 266.53125 C 184.171875 264.078125 182.179688 262.082031 179.730469 262.082031 " fill-opacity="1" fill-rule="evenodd"/><path fill="#b84141" d="M 155.503906 255.625 C 150.53125 255.625 146.476562 251.5625 146.476562 246.582031 C 146.476562 241.605469 150.53125 237.542969 155.503906 237.542969 C 160.480469 237.542969 164.535156 241.605469 164.535156 246.582031 C 164.535156 251.5625 160.480469 255.625 155.503906 255.625 Z M 155.503906 242.132812 C 153.054688 242.132812 151.0625 244.128906 151.0625 246.582031 C 151.0625 249.039062 153.054688 251.03125 155.503906 251.03125 C 157.957031 251.03125 159.949219 249.039062 159.949219 246.582031 C 159.949219 244.128906 157.957031 242.132812 155.503906 242.132812 " fill-opacity="1" fill-rule="evenodd"/><path fill="#b84141" d="M 157.65625 279.875 C 157.324219 279.875 156.980469 279.804688 156.667969 279.648438 C 155.519531 279.101562 155.046875 277.726562 155.589844 276.589844 L 175.65625 234.542969 C 176.203125 233.394531 177.578125 232.921875 178.710938 233.464844 C 179.859375 234.011719 180.332031 235.390625 179.785156 236.523438 L 159.71875 278.570312 C 159.332031 279.386719 158.515625 279.875 157.65625 279.875 " fill-opacity="1" fill-rule="evenodd"/><g clip-path="url(#778793252f)"><path fill="#b84141" d="M 167.691406 300.109375 C 159.046875 300.109375 150.644531 298.417969 142.746094 295.074219 C 135.125 291.84375 128.273438 287.222656 122.378906 281.328125 C 116.488281 275.425781 111.871094 268.570312 108.648438 260.933594 C 105.308594 253.027344 103.617188 244.617188 103.617188 235.964844 C 103.617188 228.804688 108.777344 215.214844 119.871094 193.199219 C 129.101562 174.859375 140.914062 153.808594 150.417969 136.890625 C 156.78125 125.550781 162.269531 115.78125 165.652344 109.195312 C 166.039062 108.433594 166.828125 107.945312 167.691406 107.945312 C 168.546875 107.945312 169.335938 108.433594 169.722656 109.195312 C 173.179688 115.964844 178.871094 126.125 185.464844 137.910156 C 194.867188 154.714844 206.5625 175.621094 215.652344 193.730469 C 226.546875 215.441406 231.621094 228.859375 231.621094 235.949219 C 231.621094 244.601562 229.929688 253.011719 226.601562 260.917969 C 223.394531 268.554688 218.789062 275.414062 212.925781 281.308594 C 207.066406 287.210938 200.230469 291.828125 192.617188 295.058594 C 184.714844 298.417969 176.335938 300.109375 167.691406 300.109375 Z M 167.675781 115.195312 C 164.277344 121.535156 159.632812 129.816406 154.402344 139.128906 C 136.011719 171.917969 108.203125 221.457031 108.203125 235.964844 C 108.203125 268.796875 134.894531 295.519531 167.691406 295.519531 C 200.414062 295.519531 227.03125 268.796875 227.03125 235.964844 C 227.03125 221.597656 199.609375 172.59375 181.464844 140.160156 C 176.003906 130.417969 171.171875 121.78125 167.675781 115.195312 " fill-opacity="1" fill-rule="evenodd"/></g><path fill="#b84141" d="M 202.089844 225.058594 C 197.5625 225.058594 193.492188 222.789062 191.484375 219.128906 C 190.324219 217.007812 187.671875 215.585938 184.890625 215.585938 C 182.066406 215.585938 179.484375 216.980469 178.296875 219.128906 C 176.316406 222.734375 172.164062 225.058594 167.691406 225.058594 C 163.160156 225.058594 159.089844 222.789062 157.082031 219.128906 C 155.890625 216.980469 153.3125 215.585938 150.488281 215.585938 C 147.664062 215.585938 145.085938 216.980469 143.894531 219.128906 C 141.890625 222.789062 137.816406 225.058594 133.289062 225.058594 C 128.757812 225.058594 124.6875 222.789062 122.679688 219.128906 C 121.492188 216.980469 118.910156 215.585938 116.085938 215.585938 C 115.070312 215.585938 114.222656 215.714844 113.449219 216.015625 C 112.261719 216.464844 110.941406 215.859375 110.496094 214.667969 C 110.054688 213.476562 110.65625 212.15625 111.84375 211.710938 C 113.136719 211.222656 114.527344 210.996094 116.085938 210.996094 C 120.617188 210.996094 124.6875 213.261719 126.695312 216.921875 C 127.882812 219.074219 130.464844 220.464844 133.289062 220.464844 C 136.109375 220.464844 138.691406 219.074219 139.878906 216.921875 C 141.890625 213.261719 145.957031 210.996094 150.488281 210.996094 C 155.015625 210.996094 159.089844 213.261719 161.09375 216.921875 C 162.285156 219.074219 164.863281 220.464844 167.691406 220.464844 C 170.472656 220.464844 173.121094 219.046875 174.285156 216.921875 C 176.289062 213.261719 180.359375 210.996094 184.890625 210.996094 C 189.363281 210.996094 193.519531 213.320312 195.496094 216.921875 C 196.6875 219.074219 199.265625 220.464844 202.089844 220.464844 C 204.859375 220.464844 207.492188 219.058594 208.667969 216.949219 C 210.503906 213.335938 214.675781 210.996094 219.292969 210.996094 C 220.925781 210.996094 222.300781 211.238281 223.492188 211.753906 C 224.652344 212.257812 225.195312 213.605469 224.695312 214.769531 C 224.195312 215.933594 222.847656 216.476562 221.683594 215.976562 C 221.082031 215.714844 220.28125 215.585938 219.292969 215.585938 C 216.410156 215.585938 213.773438 216.980469 212.742188 219.058594 C 212.726562 219.089844 212.710938 219.117188 212.699219 219.148438 C 210.71875 222.734375 206.5625 225.058594 202.089844 225.058594 " fill-opacity="1" fill-rule="evenodd"/><g clip-path="url(#0ce4346fa1)"><path fill="#b84141" d="M 225.3125 212.285156 C 223.75 212.285156 222.085938 212.128906 220.640625 211.984375 C 219.378906 211.855469 218.460938 210.734375 218.589844 209.476562 C 218.71875 208.210938 219.835938 207.292969 221.097656 207.421875 C 222.433594 207.550781 223.964844 207.695312 225.3125 207.695312 C 248.160156 207.695312 266.738281 189.097656 266.738281 166.222656 C 266.738281 161.886719 262.96875 152.246094 255.554688 137.523438 C 249.003906 124.535156 240.632812 109.652344 233.914062 97.6875 C 230.601562 91.800781 227.632812 86.519531 225.339844 82.289062 C 222.902344 86.835938 219.664062 92.636719 216.066406 99.078125 C 207.480469 114.445312 196.789062 133.574219 190.148438 148.070312 C 189.621094 149.21875 188.257812 149.734375 187.113281 149.203125 C 185.964844 148.671875 185.449219 147.308594 185.980469 146.160156 C 192.703125 131.496094 203.4375 112.28125 212.070312 96.839844 C 216.765625 88.414062 220.839844 81.152344 223.289062 76.332031 C 223.679688 75.570312 224.464844 75.082031 225.328125 75.082031 C 225.328125 75.082031 225.328125 75.082031 225.339844 75.082031 C 226.199219 75.082031 226.972656 75.558594 227.375 76.320312 C 229.726562 80.851562 233.527344 87.613281 237.925781 95.421875 C 244.675781 107.414062 253.074219 122.355469 259.671875 135.425781 C 267.640625 151.226562 271.351562 161 271.351562 166.191406 C 271.351562 178.535156 266.578125 190.117188 257.90625 198.796875 C 249.234375 207.480469 237.636719 212.285156 225.3125 212.285156 " fill-opacity="1" fill-rule="evenodd"/></g><path fill="#b84141" d="M 249.679688 159.191406 C 246.183594 159.191406 243.015625 157.410156 241.625 154.65625 C 240.894531 153.308594 239.273438 152.449219 237.496094 152.449219 C 235.820312 152.449219 234.15625 153.367188 233.527344 154.625 C 233.511719 154.671875 233.480469 154.699219 233.46875 154.742188 C 231.878906 157.523438 228.824219 159.203125 225.3125 159.203125 C 221.945312 159.203125 218.875 157.496094 217.300781 154.742188 C 217.285156 154.726562 217.269531 154.699219 217.269531 154.683594 C 216.523438 153.292969 215.035156 152.460938 213.269531 152.460938 C 211.523438 152.460938 209.933594 153.320312 209.128906 154.699219 C 207.726562 157.4375 204.585938 159.203125 201.085938 159.203125 C 197.675781 159.203125 194.480469 157.453125 192.929688 154.742188 C 192.917969 154.726562 192.917969 154.714844 192.902344 154.683594 C 192.230469 153.433594 191.039062 152.675781 189.621094 152.589844 C 188.359375 152.503906 187.398438 151.425781 187.46875 150.148438 C 187.554688 148.886719 188.644531 147.925781 189.90625 147.996094 C 192.890625 148.183594 195.511719 149.847656 196.929688 152.476562 C 197.664062 153.75 199.335938 154.597656 201.085938 154.597656 C 202.820312 154.597656 204.457031 153.765625 205.058594 152.558594 C 205.070312 152.515625 205.101562 152.488281 205.113281 152.449219 C 206.734375 149.605469 209.859375 147.839844 213.269531 147.839844 C 216.683594 147.839844 219.765625 149.605469 221.296875 152.460938 C 222.058594 153.765625 223.589844 154.585938 225.3125 154.585938 C 227.132812 154.585938 228.679688 153.796875 229.453125 152.488281 C 230.871094 149.707031 234.097656 147.839844 237.496094 147.839844 C 241.007812 147.839844 244.148438 149.617188 245.679688 152.503906 C 245.695312 152.515625 245.695312 152.53125 245.707031 152.5625 C 246.3125 153.753906 247.945312 154.597656 249.679688 154.597656 C 251.414062 154.597656 253.046875 153.765625 253.648438 152.5625 C 253.664062 152.515625 253.695312 152.488281 253.707031 152.449219 C 255.300781 149.648438 258.507812 147.839844 261.863281 147.839844 C 262.921875 147.839844 263.871094 147.996094 265.03125 148.386719 C 266.238281 148.789062 266.878906 150.09375 266.480469 151.285156 C 266.078125 152.488281 264.773438 153.132812 263.585938 152.730469 C 262.894531 152.503906 262.4375 152.417969 261.878906 152.417969 C 260.203125 152.417969 258.507812 153.335938 257.734375 154.65625 C 256.316406 157.425781 253.164062 159.191406 249.679688 159.191406 " fill-opacity="1" fill-rule="evenodd"/></svg>