<svg xmlns="http://www.w3.org/2000/svg" xmlns:xlink="http://www.w3.org/1999/xlink" width="500" zoomAndPan="magnify" viewBox="0 0 375 374.999991" height="500" preserveAspectRatio="xMidYMid meet" version="1.0"><path fill="#000000" d="M 79.167969 79.167969 C 34.394531 123.933594 34.394531 196.636719 79.167969 241.402344 C 123.933594 286.175781 196.636719 286.175781 241.402344 241.402344 C 286.175781 196.636719 286.175781 123.933594 241.402344 79.167969 C 196.636719 34.394531 123.933594 34.394531 79.167969 79.167969 Z M 86.324219 86.324219 C 127.144531 45.5 193.425781 45.5 234.246094 86.324219 C 275.070312 127.144531 275.070312 193.425781 234.246094 234.246094 C 193.425781 275.070312 127.144531 275.070312 86.324219 234.246094 C 45.5 193.425781 45.5 127.144531 86.324219 86.324219 Z M 86.324219 86.324219 " fill-opacity="1" fill-rule="evenodd"/><path fill="#000000" d="M 101.886719 101.886719 C 69.660156 134.121094 69.660156 186.449219 101.886719 218.683594 C 134.121094 250.910156 186.449219 250.910156 218.683594 218.683594 C 250.910156 186.449219 250.910156 134.121094 218.683594 101.886719 C 186.449219 69.660156 134.121094 69.660156 101.886719 101.886719 Z M 109.039062 109.039062 C 137.320312 80.757812 183.246094 80.757812 211.53125 109.039062 C 239.8125 137.320312 239.8125 183.246094 211.53125 211.53125 C 183.246094 239.8125 137.320312 239.8125 109.039062 211.53125 C 80.757812 183.246094 80.757812 137.320312 109.039062 109.039062 Z M 109.039062 109.039062 " fill-opacity="1" fill-rule="evenodd"/><path fill="#000000" d="M 216.769531 255.644531 C 216.769531 255.644531 266.617188 305.316406 292.851562 331.433594 C 303.507812 342.058594 320.746094 342.039062 331.382812 331.402344 C 331.390625 331.390625 331.390625 331.390625 331.402344 331.382812 C 342.039062 320.746094 342.058594 303.507812 331.445312 292.851562 C 305.535156 266.835938 256.554688 217.679688 256.554688 217.679688 C 254.578125 215.703125 251.378906 215.691406 249.402344 217.667969 C 247.425781 219.636719 247.414062 222.847656 249.382812 224.824219 C 249.382812 224.824219 298.363281 273.980469 324.269531 299.992188 C 330.953125 306.6875 330.941406 317.535156 324.25 324.226562 C 324.238281 324.238281 324.238281 324.238281 324.226562 324.25 C 317.535156 330.941406 306.6875 330.953125 299.992188 324.269531 C 273.761719 298.140625 223.914062 248.472656 223.914062 248.472656 C 221.9375 246.503906 218.726562 246.515625 216.757812 248.492188 C 214.78125 250.46875 214.792969 253.667969 216.769531 255.644531 Z M 216.769531 255.644531 " fill-opacity="1" fill-rule="evenodd"/></svg>