<svg xmlns="http://www.w3.org/2000/svg" xmlns:xlink="http://www.w3.org/1999/xlink" width="500" zoomAndPan="magnify" viewBox="0 0 375 374.999991" height="500" preserveAspectRatio="xMidYMid meet" version="1.0"><defs><clipPath id="8c0f06e10c"><path d="M 48.414062 25.773438 L 326 25.773438 L 326 349 L 48.414062 349 Z M 48.414062 25.773438 " clip-rule="nonzero"/></clipPath></defs><g clip-path="url(#8c0f06e10c)"><path fill="#000000" d="M 296.933594 69.078125 L 238.117188 69.078125 C 238.105469 69.078125 238.09375 69.070312 238.09375 69.058594 L 238.09375 47.96875 C 238.09375 35.742188 228.175781 25.832031 215.9375 25.832031 L 158.355469 25.832031 C 146.121094 25.832031 136.199219 35.742188 136.199219 47.96875 L 136.199219 69.058594 C 136.199219 69.070312 136.191406 69.078125 136.179688 69.078125 L 77.375 69.078125 C 61.683594 69.078125 48.554688 81.585938 48.492188 97.261719 C 48.429688 112.351562 60.253906 124.746094 75.128906 125.625 C 75.140625 125.625 75.148438 125.632812 75.152344 125.644531 L 89.273438 318.46875 C 90.609375 336.710938 99.261719 348.964844 110.808594 348.964844 L 261.546875 348.964844 C 273.09375 348.964844 281.75 336.710938 283.085938 318.472656 L 297.203125 125.679688 L 297.476562 125.679688 C 312.558594 125.679688 324.921875 113.847656 325.757812 98.988281 C 326.683594 82.554688 313.40625 69.078125 296.933594 69.078125 Z M 151.914062 47.96875 C 151.914062 44.414062 154.800781 41.53125 158.355469 41.53125 L 215.9375 41.53125 C 219.496094 41.53125 222.382812 44.414062 222.382812 47.96875 L 222.382812 69.058594 C 222.382812 69.070312 222.371094 69.078125 222.359375 69.078125 L 151.9375 69.078125 C 151.925781 69.078125 151.914062 69.070312 151.914062 69.058594 Z M 267.414062 317.324219 C 266.667969 327.53125 262.957031 332.738281 261.480469 333.261719 C 261.476562 333.265625 261.472656 333.265625 261.472656 333.265625 L 110.886719 333.265625 C 110.882812 333.265625 110.878906 333.265625 110.878906 333.261719 C 109.398438 332.738281 105.691406 327.53125 104.945312 317.324219 L 90.910156 125.703125 C 90.910156 125.691406 90.921875 125.679688 90.933594 125.679688 L 281.421875 125.679688 C 281.4375 125.679688 281.449219 125.691406 281.445312 125.703125 Z M 297.148438 109.980469 L 77.148438 109.980469 C 70.304688 109.980469 64.460938 104.675781 64.210938 97.84375 C 63.953125 90.6875 69.707031 84.777344 76.816406 84.777344 L 297.480469 84.777344 C 304.589844 84.777344 310.34375 90.6875 310.082031 97.84375 C 309.835938 104.675781 303.988281 109.980469 297.148438 109.980469 Z M 121.601562 163.546875 C 121.324219 159.222656 124.609375 155.492188 128.941406 155.214844 C 133.277344 154.9375 137.003906 158.222656 137.28125 162.550781 L 145.761719 295.398438 C 146.035156 299.722656 142.75 303.453125 138.417969 303.730469 C 138.25 303.742188 138.078125 303.746094 137.914062 303.746094 C 133.800781 303.746094 130.34375 300.550781 130.078125 296.394531 Z M 178.320312 296.003906 L 178.320312 163.222656 C 178.320312 158.890625 181.714844 155.160156 186.054688 155.09375 C 190.449219 155.023438 194.035156 158.5625 194.035156 162.941406 L 194.035156 295.71875 C 194.035156 300.054688 190.640625 303.785156 186.304688 303.851562 C 181.90625 303.917969 178.320312 300.378906 178.320312 296.003906 Z M 226.597656 295.394531 L 235.074219 162.546875 C 235.351562 158.222656 239.085938 154.933594 243.414062 155.214844 C 247.746094 155.492188 251.03125 159.222656 250.757812 163.546875 L 242.277344 296.394531 C 242.011719 300.550781 238.554688 303.746094 234.445312 303.746094 C 234.277344 303.746094 234.105469 303.738281 233.9375 303.730469 C 229.605469 303.453125 226.320312 299.722656 226.597656 295.394531 Z M 226.597656 295.394531 " fill-opacity="1" fill-rule="nonzero"/></g></svg>