<svg xmlns="http://www.w3.org/2000/svg" xmlns:xlink="http://www.w3.org/1999/xlink" width="500" zoomAndPan="magnify" viewBox="0 0 375 374.999991" height="500" preserveAspectRatio="xMidYMid meet" version="1.0"><defs><clipPath id="9978712af3"><path d="M 46.871094 46.871094 L 328.121094 46.871094 L 328.121094 328.121094 L 46.871094 328.121094 Z M 46.871094 46.871094 " clip-rule="nonzero"/></clipPath></defs><g clip-path="url(#9978712af3)"><path fill="#000000" d="M 46.871094 88.234375 C 46.871094 65.394531 65.394531 46.871094 88.234375 46.871094 L 121.320312 46.871094 C 125.886719 46.871094 129.59375 50.578125 129.59375 55.144531 C 129.59375 59.710938 125.886719 63.417969 121.320312 63.417969 L 88.234375 63.417969 C 74.527344 63.417969 63.417969 74.527344 63.417969 88.234375 L 63.417969 286.761719 C 63.417969 300.46875 74.527344 311.578125 88.234375 311.578125 L 121.320312 311.578125 C 125.886719 311.578125 129.59375 315.285156 129.59375 319.851562 C 129.59375 324.417969 125.886719 328.121094 121.320312 328.121094 L 88.234375 328.121094 C 65.394531 328.121094 46.871094 309.601562 46.871094 286.761719 Z M 231.273438 276.074219 C 232.769531 277.570312 234.839844 278.507812 237.128906 278.507812 C 239.421875 278.507812 241.488281 277.582031 242.988281 276.074219 L 325.707031 193.355469 C 327.203125 191.855469 328.140625 189.789062 328.140625 187.496094 C 328.140625 185.207031 327.210938 183.136719 325.707031 181.640625 L 242.988281 98.921875 C 241.488281 97.421875 239.414062 96.496094 237.128906 96.496094 C 232.554688 96.496094 228.851562 100.203125 228.851562 104.777344 C 228.851562 107.058594 229.777344 109.136719 231.273438 110.632812 L 299.882812 179.226562 L 154.410156 179.226562 C 149.84375 179.226562 146.136719 182.929688 146.136719 187.496094 C 146.136719 192.0625 149.84375 195.769531 154.410156 195.769531 L 299.882812 195.769531 L 231.273438 264.363281 C 229.777344 265.859375 228.839844 267.925781 228.839844 270.21875 C 228.839844 272.507812 229.769531 274.578125 231.273438 276.074219 Z M 231.273438 276.074219 " fill-opacity="1" fill-rule="nonzero"/></g></svg>