<svg xmlns="http://www.w3.org/2000/svg" xmlns:xlink="http://www.w3.org/1999/xlink" width="500" zoomAndPan="magnify" viewBox="0 0 375 374.999991" height="500" preserveAspectRatio="xMidYMid meet" version="1.0"><defs><clipPath id="12011f3e00"><path d="M 40.683594 164.277344 L 334.683594 164.277344 L 334.683594 210.777344 L 40.683594 210.777344 Z M 40.683594 164.277344 " clip-rule="nonzero"/></clipPath></defs><g clip-path="url(#12011f3e00)"><path fill="#688f4e" d="M 88.78125 182.980469 L 77.953125 193.535156 C 77.726562 193.753906 77.625 194.070312 77.675781 194.382812 L 80.234375 209.285156 C 80.367188 210.066406 79.546875 210.664062 78.84375 210.292969 L 65.460938 203.257812 C 65.179688 203.109375 64.847656 203.109375 64.570312 203.257812 L 51.183594 210.292969 C 50.484375 210.664062 49.664062 210.066406 49.796875 209.285156 L 52.351562 194.382812 C 52.40625 194.070312 52.304688 193.753906 52.078125 193.535156 L 41.246094 182.980469 C 40.679688 182.425781 40.992188 181.460938 41.777344 181.347656 L 56.742188 179.171875 C 57.054688 179.128906 57.324219 178.929688 57.464844 178.648438 L 64.15625 165.089844 C 64.507812 164.378906 65.523438 164.378906 65.871094 165.089844 L 72.566406 178.648438 C 72.703125 178.929688 72.972656 179.125 73.285156 179.171875 L 88.25 181.347656 C 89.035156 181.460938 89.351562 182.425781 88.78125 182.980469 Z M 149.585938 181.347656 L 134.617188 179.171875 C 134.308594 179.128906 134.039062 178.929688 133.898438 178.648438 L 127.207031 165.089844 C 126.855469 164.378906 125.839844 164.378906 125.488281 165.089844 L 118.796875 178.648438 C 118.65625 178.929688 118.386719 179.125 118.078125 179.171875 L 103.113281 181.347656 C 102.328125 181.460938 102.011719 182.425781 102.582031 182.980469 L 113.410156 193.535156 C 113.636719 193.753906 113.738281 194.070312 113.683594 194.382812 L 111.128906 209.285156 C 110.996094 210.066406 111.816406 210.664062 112.515625 210.292969 L 125.902344 203.257812 C 126.179688 203.109375 126.511719 203.109375 126.792969 203.257812 L 140.175781 210.292969 C 140.878906 210.664062 141.699219 210.066406 141.566406 209.285156 L 139.007812 194.382812 C 138.957031 194.070312 139.058594 193.753906 139.285156 193.535156 L 150.113281 182.980469 C 150.679688 182.425781 150.367188 181.460938 149.582031 181.347656 Z M 210.917969 181.347656 L 195.953125 179.171875 C 195.640625 179.128906 195.371094 178.929688 195.234375 178.648438 L 188.539062 165.089844 C 188.1875 164.378906 187.175781 164.378906 186.824219 165.089844 L 180.132812 178.648438 C 179.992188 178.929688 179.722656 179.125 179.410156 179.171875 L 164.445312 181.347656 C 163.660156 181.460938 163.347656 182.425781 163.914062 182.980469 L 174.742188 193.535156 C 174.96875 193.753906 175.070312 194.070312 175.019531 194.382812 L 172.460938 209.285156 C 172.328125 210.066406 173.148438 210.664062 173.851562 210.292969 L 187.234375 203.257812 C 187.515625 203.109375 187.847656 203.109375 188.125 203.257812 L 201.511719 210.292969 C 202.214844 210.664062 203.035156 210.066406 202.898438 209.285156 L 200.34375 194.382812 C 200.289062 194.070312 200.390625 193.753906 200.617188 193.535156 L 211.445312 182.980469 C 212.015625 182.425781 211.699219 181.460938 210.914062 181.347656 Z M 272.253906 181.347656 L 257.289062 179.171875 C 256.976562 179.128906 256.707031 178.929688 256.566406 178.648438 L 249.875 165.089844 C 249.523438 164.378906 248.507812 164.378906 248.160156 165.089844 L 241.464844 178.648438 C 241.328125 178.929688 241.058594 179.125 240.746094 179.171875 L 225.78125 181.347656 C 224.996094 181.460938 224.679688 182.425781 225.25 182.980469 L 236.078125 193.535156 C 236.304688 193.753906 236.40625 194.070312 236.351562 194.382812 L 233.796875 209.285156 C 233.664062 210.066406 234.484375 210.664062 235.183594 210.292969 L 248.570312 203.257812 C 248.847656 203.109375 249.183594 203.109375 249.460938 203.257812 L 262.84375 210.292969 C 263.546875 210.664062 264.367188 210.066406 264.234375 209.285156 L 261.675781 194.382812 C 261.625 194.070312 261.726562 193.753906 261.953125 193.535156 L 272.78125 182.980469 C 273.347656 182.425781 273.035156 181.460938 272.25 181.347656 Z M 334.117188 182.980469 C 334.6875 182.425781 334.375 181.460938 333.589844 181.347656 L 318.625 179.171875 C 318.3125 179.128906 318.042969 178.929688 317.902344 178.648438 L 311.210938 165.089844 C 310.859375 164.378906 309.84375 164.378906 309.492188 165.089844 L 302.800781 178.648438 C 302.660156 178.929688 302.390625 179.125 302.078125 179.171875 L 287.113281 181.347656 C 286.328125 181.460938 286.015625 182.425781 286.585938 182.980469 L 297.414062 193.535156 C 297.636719 193.753906 297.742188 194.070312 297.6875 194.382812 L 295.132812 209.285156 C 294.996094 210.066406 295.816406 210.664062 296.519531 210.292969 L 309.90625 203.257812 C 310.183594 203.109375 310.515625 203.109375 310.796875 203.257812 L 324.179688 210.292969 C 324.882812 210.664062 325.703125 210.066406 325.570312 209.285156 L 323.011719 194.382812 C 322.957031 194.070312 323.0625 193.753906 323.285156 193.535156 Z M 334.117188 182.980469 " fill-opacity="1" fill-rule="nonzero"/></g></svg>